<svg width="64" height="64" fill="none" xmlns="http://www.w3.org/2000/svg"><path d="M32 8a24 24 0 1024 24A24.027 24.027 0 0032 8zm15.489 14.874h-4.656a23.1 23.1 0 00-3.153-7.128 18.09 18.09 0 017.809 7.128zM50 32c-.004 2-.344 3.986-1.005 5.874h-5.463A36.98 36.98 0 0044 32a36.98 36.98 0 00-.468-5.874h5.463C49.656 28.014 49.995 30 50 32zM32 50c-3.225 0-6.111-3.6-7.701-8.874h15.405C38.111 46.4 35.225 50 32 50zm-8.478-12.126a33.254 33.254 0 010-11.748h16.953c.348 1.939.524 3.904.525 5.874 0 1.97-.175 3.935-.522 5.874H23.522zM14 32c.004-2 .344-3.986 1.005-5.874h5.463a37.085 37.085 0 000 11.748h-5.463C14.344 35.986 14.005 34 14 32zm18-18c3.225 0 6.111 3.6 7.701 8.874H24.299C25.889 17.6 28.775 14 32 14zm-7.68 1.746a23.103 23.103 0 00-3.153 7.128h-4.656a18.09 18.09 0 017.809-7.128zm-7.8 25.38h4.647a23.103 23.103 0 003.153 7.128 18.09 18.09 0 01-7.809-7.128h.009zm23.169 7.128a23.1 23.1 0 003.153-7.128h4.656a18.09 18.09 0 01-7.818 7.128h.009z" fill="url(#paint0_radial)"/><defs><radialGradient id="paint0_radial" cx="0" cy="0" r="1" gradientUnits="userSpaceOnUse" gradientTransform="rotate(-45 37.657 -63.598) scale(67.8823)"><stop stop-color="#B833E1"/><stop offset=".371" stop-color="#9059FF"/><stop offset=".614" stop-color="#5B6DF8"/><stop offset="1" stop-color="#0090ED"/></radialGradient></defs></svg>