<svg width="64" height="64" fill="none" xmlns="http://www.w3.org/2000/svg"><path fill-rule="evenodd" clip-rule="evenodd" d="M15.037 18.037A24.03 24.03 0 0132 11a23.964 23.964 0 0121.663 34.287 3 3 0 11-5.421-2.574A18 18 0 1014 35a17.83 17.83 0 001.74 7.71 3.002 3.002 0 01-2.502 4.481 3.003 3.003 0 01-2.898-1.901A23.75 23.75 0 018 35a24.027 24.027 0 017.037-16.963zm27.14 10.998a1.5 1.5 0 011.13.199 1.5 1.5 0 01.45 2.07l-7.39 11.613a5.862 5.862 0 01.6 7.437 6.031 6.031 0 01-1.62 1.62 6 6 0 11-1.5-10.674l7.39-11.607a1.5 1.5 0 01.94-.658z" fill="url(#paint0_radial)"/><defs><radialGradient id="paint0_radial" cx="0" cy="0" r="1" gradientUnits="userSpaceOnUse" gradientTransform="matrix(-48.0003 42.00334 -41.63212 -47.57609 56 11)"><stop stop-color="#E22850"/><stop offset="1" stop-color="#FFA436"/></radialGradient></defs></svg>